<svg width="52" height="51" viewBox="0 0 52 51" fill="none" xmlns="http://www.w3.org/2000/svg">
<path d="M5.132 50.5C4.02089 50.5 3.04867 50.0833 2.21533 49.25C1.382 48.4167 0.965332 47.4444 0.965332 46.3333V4.66667C0.965332 3.55556 1.382 2.58333 2.21533 1.75C3.04867 0.916667 4.02089 0.5 5.132 0.5H31.4514C32.0533 0.5 32.551 0.69676 32.9445 1.09028C33.338 1.4838 33.5348 1.98148 33.5348 2.58333C33.5348 3.18519 33.338 3.68287 32.9445 4.07639C32.551 4.46991 32.0533 4.66667 31.4514 4.66667H5.132V46.3333H46.7987V20.0833C46.7987 19.4815 46.9954 18.9838 47.3889 18.5903C47.7825 18.1968 48.2801 18 48.882 18C49.4838 18 49.9815 18.1968 50.3751 18.5903C50.7686 18.9838 50.9653 19.4815 50.9653 20.0833V46.3333C50.9653 47.4444 50.5487 48.4167 49.7153 49.25C48.882 50.0833 47.9098 50.5 46.7987 50.5H5.132ZM43.3264 15.9167C42.7246 15.9167 42.2269 15.7199 41.8334 15.3264C41.4399 14.9329 41.2431 14.4352 41.2431 13.8333V10.2917H37.7014C37.0996 10.2917 36.6019 10.0949 36.2084 9.70139C35.8149 9.30787 35.6181 8.81019 35.6181 8.20833C35.6181 7.60648 35.8149 7.1088 36.2084 6.71528C36.6019 6.32176 37.0996 6.125 37.7014 6.125H41.2431V2.58333C41.2431 1.98148 41.4399 1.4838 41.8334 1.09028C42.2269 0.69676 42.7246 0.5 43.3264 0.5C43.9283 0.5 44.426 0.69676 44.8195 1.09028C45.213 1.4838 45.4098 1.98148 45.4098 2.58333V6.125H48.9514C49.5533 6.125 50.051 6.32176 50.4445 6.71528C50.838 7.1088 51.0348 7.60648 51.0348 8.20833C51.0348 8.81019 50.838 9.30787 50.4445 9.70139C50.051 10.0949 49.5533 10.2917 48.9514 10.2917H45.4098V13.8333C45.4098 14.4352 45.213 14.9329 44.8195 15.3264C44.426 15.7199 43.9283 15.9167 43.3264 15.9167ZM11.4514 39.25H40.5487C41.0116 39.25 41.3357 39.0648 41.5209 38.6944C41.7061 38.3241 41.6598 37.9537 41.382 37.5833L33.4653 27.0278C33.2338 26.75 32.9561 26.6111 32.632 26.6111C32.3079 26.6111 32.0301 26.75 31.7987 27.0278L23.8126 37.5139L18.1181 30.0139C17.8866 29.7361 17.6089 29.5972 17.2848 29.5972C16.9607 29.5972 16.6829 29.7361 16.4514 30.0139L10.6181 37.5833C10.3866 37.9537 10.3751 38.3241 10.5834 38.6944C10.7917 39.0648 11.0811 39.25 11.4514 39.25Z" fill="#D9D9D9"/>
</svg>
