<svg width="15" height="16" viewBox="0 0 15 16" fill="none" xmlns="http://www.w3.org/2000/svg">
<path d="M8.58119 2.69365L9.68119 4.89365C9.83119 5.1999 10.2312 5.49365 10.5687 5.5499L12.5624 5.88115C13.8374 6.09365 14.1374 7.01865 13.2187 7.93115L11.6687 9.48115C11.4062 9.74365 11.2624 10.2499 11.3437 10.6124L11.7874 12.5312C12.1374 14.0499 11.3312 14.6374 9.98744 13.8437L8.11869 12.7374C7.78119 12.5374 7.22494 12.5374 6.88119 12.7374L5.01244 13.8437C3.67494 14.6374 2.86244 14.0437 3.21244 12.5312L3.65619 10.6124C3.73744 10.2499 3.59369 9.74365 3.33119 9.48115L1.78119 7.93115C0.868693 7.01865 1.16244 6.09365 2.43744 5.88115L4.43119 5.5499C4.76244 5.49365 5.16244 5.1999 5.31244 4.89365L6.41244 2.69365C7.01244 1.4999 7.98744 1.4999 8.58119 2.69365Z" stroke="white" stroke-width="1.5" stroke-linecap="round" stroke-linejoin="round"/>
</svg>
