<svg width="15" height="16" viewBox="0 0 15 16" fill="none" xmlns="http://www.w3.org/2000/svg">
<path d="M10.75 14.25C12.4068 14.25 13.75 12.9068 13.75 11.25C13.75 9.59314 12.4068 8.25 10.75 8.25C9.09314 8.25 7.75 9.59314 7.75 11.25C7.75 12.9068 9.09314 14.25 10.75 14.25Z" stroke="white" stroke-width="1.5" stroke-miterlimit="10" stroke-linecap="round" stroke-linejoin="round"/>
<path d="M11.8687 11.2876H9.63123" stroke="white" stroke-width="1.5" stroke-miterlimit="10" stroke-linecap="round" stroke-linejoin="round"/>
<path d="M10.75 10.1938V12.4376" stroke="white" stroke-width="1.5" stroke-miterlimit="10" stroke-linecap="round" stroke-linejoin="round"/>
<path d="M13.75 5.93127C13.75 7.16252 13.4313 8.25 12.9313 9.19375C12.3813 8.6125 11.6063 8.25003 10.75 8.25003C9.09376 8.25003 7.75002 9.59377 7.75002 11.25C7.75002 12.0188 8.04375 12.7188 8.51875 13.25C8.2875 13.3563 8.075 13.4438 7.8875 13.5063C7.675 13.5813 7.325 13.5813 7.1125 13.5063C5.3 12.8875 1.25 10.3063 1.25 5.93127C1.25 4.00002 2.80625 2.4375 4.725 2.4375C5.85625 2.4375 6.86875 2.98753 7.5 3.83128C8.13125 2.98753 9.14375 2.4375 10.275 2.4375C12.1938 2.4375 13.75 4.00002 13.75 5.93127Z" stroke="white" stroke-width="1.5" stroke-linecap="round" stroke-linejoin="round"/>
</svg>
